<mxfile host="app.diagrams.net" modified="2022-03-07T09:20:35.648Z" agent="5.0 (Windows NT 10.0; Win64; x64) AppleWebKit/537.36 (KHTML, like Gecko) Chrome/98.0.4758.102 Safari/537.36" etag="UBk9bFKemKoUlserxVI1" version="16.6.6" type="github">
  <diagram id="M3LH4oMvlL-WW8W0X0On" name="Page-1">
    <mxGraphModel dx="1422" dy="762" grid="1" gridSize="10" guides="1" tooltips="1" connect="1" arrows="1" fold="1" page="1" pageScale="1" pageWidth="827" pageHeight="1169" math="0" shadow="0">
      <root>
        <mxCell id="0" />
        <mxCell id="1" parent="0" />
        <mxCell id="gqkPClIkoSpvf5nVNbBP-31" value="" style="edgeStyle=orthogonalEdgeStyle;rounded=0;orthogonalLoop=1;jettySize=auto;html=1;" edge="1" parent="1" source="gqkPClIkoSpvf5nVNbBP-3" target="gqkPClIkoSpvf5nVNbBP-30">
          <mxGeometry relative="1" as="geometry" />
        </mxCell>
        <mxCell id="gqkPClIkoSpvf5nVNbBP-3" value="MatchStatus&lt;br&gt;Check" style="rounded=1;whiteSpace=wrap;html=1;fillColor=#ffe6cc;strokeColor=#d79b00;" vertex="1" parent="1">
          <mxGeometry x="80" y="240" width="120" height="60" as="geometry" />
        </mxCell>
        <mxCell id="gqkPClIkoSpvf5nVNbBP-33" value="" style="edgeStyle=orthogonalEdgeStyle;rounded=0;orthogonalLoop=1;jettySize=auto;html=1;" edge="1" parent="1" source="gqkPClIkoSpvf5nVNbBP-30" target="gqkPClIkoSpvf5nVNbBP-32">
          <mxGeometry relative="1" as="geometry" />
        </mxCell>
        <mxCell id="gqkPClIkoSpvf5nVNbBP-30" value="lock" style="rounded=1;whiteSpace=wrap;html=1;fillColor=#ffe6cc;strokeColor=#d79b00;" vertex="1" parent="1">
          <mxGeometry x="280" y="240" width="120" height="60" as="geometry" />
        </mxCell>
        <mxCell id="gqkPClIkoSpvf5nVNbBP-39" value="" style="edgeStyle=orthogonalEdgeStyle;rounded=0;orthogonalLoop=1;jettySize=auto;html=1;" edge="1" parent="1" source="gqkPClIkoSpvf5nVNbBP-32" target="gqkPClIkoSpvf5nVNbBP-38">
          <mxGeometry relative="1" as="geometry" />
        </mxCell>
        <mxCell id="gqkPClIkoSpvf5nVNbBP-32" value="deQueueFromZset" style="rounded=1;whiteSpace=wrap;html=1;fillColor=#ffe6cc;strokeColor=#d79b00;" vertex="1" parent="1">
          <mxGeometry x="480" y="240" width="120" height="60" as="geometry" />
        </mxCell>
        <mxCell id="gqkPClIkoSpvf5nVNbBP-41" value="" style="edgeStyle=orthogonalEdgeStyle;rounded=0;orthogonalLoop=1;jettySize=auto;html=1;" edge="1" parent="1" source="gqkPClIkoSpvf5nVNbBP-38" target="gqkPClIkoSpvf5nVNbBP-40">
          <mxGeometry relative="1" as="geometry" />
        </mxCell>
        <mxCell id="gqkPClIkoSpvf5nVNbBP-38" value="batchload members from zset" style="rounded=1;whiteSpace=wrap;html=1;fillColor=#dae8fc;strokeColor=#6c8ebf;" vertex="1" parent="1">
          <mxGeometry x="480" y="360" width="120" height="60" as="geometry" />
        </mxCell>
        <mxCell id="gqkPClIkoSpvf5nVNbBP-43" value="" style="edgeStyle=orthogonalEdgeStyle;rounded=0;orthogonalLoop=1;jettySize=auto;html=1;" edge="1" parent="1" source="gqkPClIkoSpvf5nVNbBP-40" target="gqkPClIkoSpvf5nVNbBP-42">
          <mxGeometry relative="1" as="geometry" />
        </mxCell>
        <mxCell id="gqkPClIkoSpvf5nVNbBP-40" value="filter members by xxlId" style="rounded=1;whiteSpace=wrap;html=1;fillColor=#dae8fc;strokeColor=#6c8ebf;" vertex="1" parent="1">
          <mxGeometry x="480" y="480" width="120" height="60" as="geometry" />
        </mxCell>
        <mxCell id="gqkPClIkoSpvf5nVNbBP-42" value="zrem targetMembers" style="rounded=1;whiteSpace=wrap;html=1;fillColor=#dae8fc;strokeColor=#6c8ebf;" vertex="1" parent="1">
          <mxGeometry x="480" y="600" width="120" height="60" as="geometry" />
        </mxCell>
      </root>
    </mxGraphModel>
  </diagram>
</mxfile>
